<svg xmlns="http://www.w3.org/2000/svg" xmlns:xlink="http://www.w3.org/1999/xlink" width="2000" zoomAndPan="magnify" viewBox="0 0 1500 749.999995" height="1000" preserveAspectRatio="xMidYMid meet" version="1.0"><defs><g/><clipPath id="3367ddb658"><path d="M 0.601562 0.601562 L 621 0.601562 L 621 685.078125 L 0.601562 685.078125 Z M 0.601562 0.601562 " clip-rule="nonzero"/></clipPath><clipPath id="d8d1506824"><rect x="0" width="621" y="0" height="686"/></clipPath><clipPath id="a70ae3aaa7"><path d="M 648 95 L 1376.28125 95 L 1376.28125 403 L 648 403 Z M 648 95 " clip-rule="nonzero"/></clipPath><clipPath id="7bc18a2e95"><rect x="0" width="729" y="0" height="308"/></clipPath><clipPath id="635830231f"><rect x="0" width="708" y="0" height="255"/></clipPath><clipPath id="16ad5a68aa"><rect x="0" width="1377" y="0" height="686"/></clipPath></defs><g transform="matrix(1, 0, 0, 1, 51, 33)"><g clip-path="url(#16ad5a68aa)"><g clip-path="url(#3367ddb658)"><g transform="matrix(1, 0, 0, 1, -0.000000000000014211, -0.000000000000049738)"><g clip-path="url(#d8d1506824)"><path fill="#17320b" d="M 100.101562 45.148438 C 100.101562 45.894531 100.03125 46.636719 99.882812 47.367188 C 99.738281 48.101562 99.523438 48.8125 99.238281 49.503906 C 98.953125 50.191406 98.601562 50.847656 98.1875 51.46875 C 97.769531 52.089844 97.300781 52.664062 96.769531 53.195312 C 96.242188 53.722656 95.667969 54.191406 95.046875 54.609375 C 94.425781 55.023438 93.769531 55.375 93.078125 55.660156 C 92.390625 55.945312 91.679688 56.160156 90.945312 56.308594 C 90.214844 56.453125 89.472656 56.527344 88.726562 56.527344 C 87.980469 56.527344 87.238281 56.453125 86.507812 56.308594 C 85.773438 56.160156 85.0625 55.945312 84.371094 55.660156 C 83.683594 55.375 83.027344 55.023438 82.40625 54.609375 C 81.785156 54.191406 81.210938 53.722656 80.679688 53.195312 C 80.152344 52.664062 79.683594 52.089844 79.265625 51.46875 C 78.851562 50.847656 78.5 50.191406 78.214844 49.503906 C 77.929688 48.8125 77.714844 48.101562 77.566406 47.367188 C 77.421875 46.636719 77.347656 45.894531 77.347656 45.148438 C 77.347656 44.402344 77.421875 43.660156 77.566406 42.929688 C 77.714844 42.195312 77.929688 41.484375 78.214844 40.796875 C 78.5 40.105469 78.851562 39.449219 79.265625 38.828125 C 79.683594 38.207031 80.152344 37.632812 80.679688 37.105469 C 81.210938 36.574219 81.785156 36.105469 82.40625 35.6875 C 83.027344 35.273438 83.683594 34.921875 84.371094 34.636719 C 85.0625 34.351562 85.773438 34.136719 86.507812 33.992188 C 87.238281 33.84375 87.980469 33.773438 88.726562 33.773438 C 89.472656 33.773438 90.214844 33.84375 90.945312 33.992188 C 91.679688 34.136719 92.390625 34.351562 93.078125 34.636719 C 93.769531 34.921875 94.425781 35.273438 95.046875 35.6875 C 95.667969 36.105469 96.242188 36.574219 96.769531 37.105469 C 97.300781 37.632812 97.769531 38.207031 98.1875 38.828125 C 98.601562 39.449219 98.953125 40.105469 99.238281 40.796875 C 99.523438 41.484375 99.738281 42.195312 99.882812 42.929688 C 100.03125 43.660156 100.101562 44.402344 100.101562 45.148438 Z M 100.101562 45.148438 " fill-opacity="1" fill-rule="nonzero"/><g fill="#000000" fill-opacity="1"><g transform="translate(109.968738, 53.413924)"><g><path d="M 12.53125 -11.515625 C 12.53125 -9.867188 11.96875 -8.601562 10.84375 -7.71875 C 9.726562 -6.832031 8.125 -6.390625 6.03125 -6.390625 L 4.125 -6.390625 L 4.125 0 L 2.234375 0 L 2.234375 -16.234375 L 6.4375 -16.234375 C 10.5 -16.234375 12.53125 -14.660156 12.53125 -11.515625 Z M 4.125 -8.015625 L 5.828125 -8.015625 C 7.492188 -8.015625 8.703125 -8.28125 9.453125 -8.8125 C 10.203125 -9.351562 10.578125 -10.222656 10.578125 -11.421875 C 10.578125 -12.492188 10.222656 -13.289062 9.515625 -13.8125 C 8.816406 -14.34375 7.722656 -14.609375 6.234375 -14.609375 L 4.125 -14.609375 Z M 4.125 -8.015625 "/></g></g></g><g fill="#000000" fill-opacity="1"><g transform="translate(123.666265, 53.413924)"><g><path d="M 7.09375 0.21875 C 5.300781 0.21875 3.882812 -0.328125 2.84375 -1.421875 C 1.800781 -2.515625 1.28125 -4.035156 1.28125 -5.984375 C 1.28125 -7.953125 1.757812 -9.507812 2.71875 -10.65625 C 3.6875 -11.8125 4.988281 -12.390625 6.625 -12.390625 C 8.144531 -12.390625 9.347656 -11.890625 10.234375 -10.890625 C 11.128906 -9.890625 11.578125 -8.566406 11.578125 -6.921875 L 11.578125 -5.75 L 3.1875 -5.75 C 3.226562 -4.320312 3.585938 -3.238281 4.265625 -2.5 C 4.953125 -1.757812 5.921875 -1.390625 7.171875 -1.390625 C 8.472656 -1.390625 9.765625 -1.660156 11.046875 -2.203125 L 11.046875 -0.5625 C 10.398438 -0.28125 9.785156 -0.0820312 9.203125 0.03125 C 8.617188 0.15625 7.914062 0.21875 7.09375 0.21875 Z M 6.59375 -10.859375 C 5.613281 -10.859375 4.832031 -10.535156 4.25 -9.890625 C 3.675781 -9.253906 3.335938 -8.375 3.234375 -7.25 L 9.59375 -7.25 C 9.59375 -8.414062 9.332031 -9.304688 8.8125 -9.921875 C 8.300781 -10.546875 7.5625 -10.859375 6.59375 -10.859375 Z M 6.59375 -10.859375 "/></g></g></g><g fill="#000000" fill-opacity="1"><g transform="translate(136.430629, 53.413924)"><g><path d="M 9.8125 -3.328125 C 9.8125 -2.191406 9.390625 -1.316406 8.546875 -0.703125 C 7.703125 -0.0859375 6.515625 0.21875 4.984375 0.21875 C 3.367188 0.21875 2.109375 -0.0351562 1.203125 -0.546875 L 1.203125 -2.25 C 1.796875 -1.957031 2.425781 -1.722656 3.09375 -1.546875 C 3.757812 -1.378906 4.40625 -1.296875 5.03125 -1.296875 C 5.988281 -1.296875 6.726562 -1.445312 7.25 -1.75 C 7.769531 -2.0625 8.03125 -2.535156 8.03125 -3.171875 C 8.03125 -3.640625 7.820312 -4.039062 7.40625 -4.375 C 7 -4.71875 6.203125 -5.117188 5.015625 -5.578125 C 3.878906 -5.992188 3.070312 -6.359375 2.59375 -6.671875 C 2.113281 -6.992188 1.753906 -7.351562 1.515625 -7.75 C 1.285156 -8.15625 1.171875 -8.632812 1.171875 -9.1875 C 1.171875 -10.175781 1.570312 -10.957031 2.375 -11.53125 C 3.1875 -12.101562 4.296875 -12.390625 5.703125 -12.390625 C 7.015625 -12.390625 8.296875 -12.125 9.546875 -11.59375 L 8.890625 -10.09375 C 7.671875 -10.601562 6.566406 -10.859375 5.578125 -10.859375 C 4.703125 -10.859375 4.039062 -10.71875 3.59375 -10.4375 C 3.15625 -10.164062 2.9375 -9.789062 2.9375 -9.3125 C 2.9375 -8.976562 3.019531 -8.695312 3.1875 -8.46875 C 3.351562 -8.238281 3.617188 -8.019531 3.984375 -7.8125 C 4.359375 -7.613281 5.070312 -7.316406 6.125 -6.921875 C 7.5625 -6.390625 8.535156 -5.859375 9.046875 -5.328125 C 9.554688 -4.796875 9.8125 -4.128906 9.8125 -3.328125 Z M 9.8125 -3.328125 "/></g></g></g><g fill="#000000" fill-opacity="1"><g transform="translate(147.284227, 53.413924)"><g><path d="M 9.8125 -3.328125 C 9.8125 -2.191406 9.390625 -1.316406 8.546875 -0.703125 C 7.703125 -0.0859375 6.515625 0.21875 4.984375 0.21875 C 3.367188 0.21875 2.109375 -0.0351562 1.203125 -0.546875 L 1.203125 -2.25 C 1.796875 -1.957031 2.425781 -1.722656 3.09375 -1.546875 C 3.757812 -1.378906 4.40625 -1.296875 5.03125 -1.296875 C 5.988281 -1.296875 6.726562 -1.445312 7.25 -1.75 C 7.769531 -2.0625 8.03125 -2.535156 8.03125 -3.171875 C 8.03125 -3.640625 7.820312 -4.039062 7.40625 -4.375 C 7 -4.71875 6.203125 -5.117188 5.015625 -5.578125 C 3.878906 -5.992188 3.070312 -6.359375 2.59375 -6.671875 C 2.113281 -6.992188 1.753906 -7.351562 1.515625 -7.75 C 1.285156 -8.15625 1.171875 -8.632812 1.171875 -9.1875 C 1.171875 -10.175781 1.570312 -10.957031 2.375 -11.53125 C 3.1875 -12.101562 4.296875 -12.390625 5.703125 -12.390625 C 7.015625 -12.390625 8.296875 -12.125 9.546875 -11.59375 L 8.890625 -10.09375 C 7.671875 -10.601562 6.566406 -10.859375 5.578125 -10.859375 C 4.703125 -10.859375 4.039062 -10.71875 3.59375 -10.4375 C 3.15625 -10.164062 2.9375 -9.789062 2.9375 -9.3125 C 2.9375 -8.976562 3.019531 -8.695312 3.1875 -8.46875 C 3.351562 -8.238281 3.617188 -8.019531 3.984375 -7.8125 C 4.359375 -7.613281 5.070312 -7.316406 6.125 -6.921875 C 7.5625 -6.390625 8.535156 -5.859375 9.046875 -5.328125 C 9.554688 -4.796875 9.8125 -4.128906 9.8125 -3.328125 Z M 9.8125 -3.328125 "/></g></g></g><g fill="#000000" fill-opacity="1"><g transform="translate(158.137825, 53.413924)"><g><path d="M 12.46875 -6.09375 C 12.46875 -4.113281 11.96875 -2.566406 10.96875 -1.453125 C 9.96875 -0.335938 8.585938 0.21875 6.828125 0.21875 C 5.734375 0.21875 4.765625 -0.0351562 3.921875 -0.546875 C 3.078125 -1.054688 2.425781 -1.785156 1.96875 -2.734375 C 1.507812 -3.691406 1.28125 -4.8125 1.28125 -6.09375 C 1.28125 -8.082031 1.773438 -9.628906 2.765625 -10.734375 C 3.753906 -11.835938 5.128906 -12.390625 6.890625 -12.390625 C 8.597656 -12.390625 9.953125 -11.820312 10.953125 -10.6875 C 11.960938 -9.5625 12.46875 -8.03125 12.46875 -6.09375 Z M 3.1875 -6.09375 C 3.1875 -4.539062 3.492188 -3.359375 4.109375 -2.546875 C 4.734375 -1.734375 5.648438 -1.328125 6.859375 -1.328125 C 8.066406 -1.328125 8.984375 -1.726562 9.609375 -2.53125 C 10.234375 -3.34375 10.546875 -4.53125 10.546875 -6.09375 C 10.546875 -7.644531 10.234375 -8.820312 9.609375 -9.625 C 8.984375 -10.425781 8.0625 -10.828125 6.84375 -10.828125 C 5.632812 -10.828125 4.722656 -10.429688 4.109375 -9.640625 C 3.492188 -8.847656 3.1875 -7.664062 3.1875 -6.09375 Z M 3.1875 -6.09375 "/></g></g></g><g fill="#000000" fill-opacity="1"><g transform="translate(171.879789, 53.413924)"><g><path d="M 9.4375 0 L 9.078125 -1.734375 L 8.984375 -1.734375 C 8.378906 -0.972656 7.773438 -0.457031 7.171875 -0.1875 C 6.566406 0.0820312 5.8125 0.21875 4.90625 0.21875 C 3.695312 0.21875 2.75 -0.0859375 2.0625 -0.703125 C 1.382812 -1.328125 1.046875 -2.210938 1.046875 -3.359375 C 1.046875 -5.816406 3.007812 -7.109375 6.9375 -7.234375 L 9.015625 -7.296875 L 9.015625 -8.046875 C 9.015625 -9.003906 8.804688 -9.710938 8.390625 -10.171875 C 7.984375 -10.628906 7.328125 -10.859375 6.421875 -10.859375 C 5.410156 -10.859375 4.265625 -10.546875 2.984375 -9.921875 L 2.40625 -11.328125 C 3.007812 -11.648438 3.664062 -11.90625 4.375 -12.09375 C 5.09375 -12.28125 5.8125 -12.375 6.53125 -12.375 C 7.976562 -12.375 9.050781 -12.050781 9.75 -11.40625 C 10.457031 -10.757812 10.8125 -9.726562 10.8125 -8.3125 L 10.8125 0 Z M 5.28125 -1.296875 C 6.425781 -1.296875 7.328125 -1.609375 7.984375 -2.234375 C 8.640625 -2.867188 8.96875 -3.753906 8.96875 -4.890625 L 8.96875 -5.984375 L 7.125 -5.90625 C 5.65625 -5.851562 4.597656 -5.625 3.953125 -5.21875 C 3.304688 -4.820312 2.984375 -4.195312 2.984375 -3.34375 C 2.984375 -2.675781 3.179688 -2.164062 3.578125 -1.8125 C 3.984375 -1.46875 4.550781 -1.296875 5.28125 -1.296875 Z M 5.28125 -1.296875 "/></g></g></g><g fill="#000000" fill-opacity="1"><g transform="translate(184.533061, 53.413924)"><g/></g></g><g fill="#000000" fill-opacity="1"><g transform="translate(190.443103, 53.413924)"><g><path d="M 7.9375 0 L 6.140625 0 L 6.140625 -11.578125 C 6.140625 -12.535156 6.171875 -13.445312 6.234375 -14.3125 C 6.078125 -14.15625 5.898438 -13.988281 5.703125 -13.8125 C 5.515625 -13.644531 4.632812 -12.925781 3.0625 -11.65625 L 2.09375 -12.921875 L 6.390625 -16.234375 L 7.9375 -16.234375 Z M 7.9375 0 "/></g></g></g><path fill="#7ed957" d="M 263.183594 45.148438 C 263.183594 45.894531 263.109375 46.636719 262.964844 47.367188 C 262.816406 48.101562 262.601562 48.8125 262.316406 49.503906 C 262.03125 50.191406 261.679688 50.847656 261.265625 51.46875 C 260.847656 52.089844 260.378906 52.664062 259.851562 53.195312 C 259.320312 53.722656 258.746094 54.191406 258.125 54.609375 C 257.503906 55.023438 256.847656 55.375 256.160156 55.660156 C 255.46875 55.945312 254.757812 56.160156 254.023438 56.308594 C 253.292969 56.453125 252.550781 56.527344 251.804688 56.527344 C 251.058594 56.527344 250.316406 56.453125 249.585938 56.308594 C 248.851562 56.160156 248.140625 55.945312 247.453125 55.660156 C 246.761719 55.375 246.105469 55.023438 245.484375 54.609375 C 244.863281 54.191406 244.289062 53.722656 243.761719 53.195312 C 243.230469 52.664062 242.761719 52.089844 242.34375 51.46875 C 241.929688 50.847656 241.582031 50.191406 241.292969 49.503906 C 241.007812 48.8125 240.792969 48.101562 240.648438 47.367188 C 240.5 46.636719 240.429688 45.894531 240.429688 45.148438 C 240.429688 44.402344 240.5 43.660156 240.648438 42.929688 C 240.792969 42.195312 241.007812 41.484375 241.292969 40.796875 C 241.582031 40.105469 241.929688 39.449219 242.34375 38.828125 C 242.761719 38.207031 243.230469 37.632812 243.761719 37.105469 C 244.289062 36.574219 244.863281 36.105469 245.484375 35.6875 C 246.105469 35.273438 246.761719 34.921875 247.453125 34.636719 C 248.140625 34.351562 248.851562 34.136719 249.585938 33.992188 C 250.316406 33.84375 251.058594 33.773438 251.804688 33.773438 C 252.550781 33.773438 253.292969 33.84375 254.023438 33.992188 C 254.757812 34.136719 255.46875 34.351562 256.160156 34.636719 C 256.847656 34.921875 257.503906 35.273438 258.125 35.6875 C 258.746094 36.105469 259.320312 36.574219 259.851562 37.105469 C 260.378906 37.632812 260.847656 38.207031 261.265625 38.828125 C 261.679688 39.449219 262.03125 40.105469 262.316406 40.796875 C 262.601562 41.484375 262.816406 42.195312 262.964844 42.929688 C 263.109375 43.660156 263.183594 44.402344 263.183594 45.148438 Z M 263.183594 45.148438 " fill-opacity="1" fill-rule="nonzero"/><g fill="#000000" fill-opacity="1"><g transform="translate(273.047587, 53.413924)"><g><path d="M 12.53125 -11.515625 C 12.53125 -9.867188 11.96875 -8.601562 10.84375 -7.71875 C 9.726562 -6.832031 8.125 -6.390625 6.03125 -6.390625 L 4.125 -6.390625 L 4.125 0 L 2.234375 0 L 2.234375 -16.234375 L 6.4375 -16.234375 C 10.5 -16.234375 12.53125 -14.660156 12.53125 -11.515625 Z M 4.125 -8.015625 L 5.828125 -8.015625 C 7.492188 -8.015625 8.703125 -8.28125 9.453125 -8.8125 C 10.203125 -9.351562 10.578125 -10.222656 10.578125 -11.421875 C 10.578125 -12.492188 10.222656 -13.289062 9.515625 -13.8125 C 8.816406 -14.34375 7.722656 -14.609375 6.234375 -14.609375 L 4.125 -14.609375 Z M 4.125 -8.015625 "/></g></g></g><g fill="#000000" fill-opacity="1"><g transform="translate(286.745115, 53.413924)"><g><path d="M 7.09375 0.21875 C 5.300781 0.21875 3.882812 -0.328125 2.84375 -1.421875 C 1.800781 -2.515625 1.28125 -4.035156 1.28125 -5.984375 C 1.28125 -7.953125 1.757812 -9.507812 2.71875 -10.65625 C 3.6875 -11.8125 4.988281 -12.390625 6.625 -12.390625 C 8.144531 -12.390625 9.347656 -11.890625 10.234375 -10.890625 C 11.128906 -9.890625 11.578125 -8.566406 11.578125 -6.921875 L 11.578125 -5.75 L 3.1875 -5.75 C 3.226562 -4.320312 3.585938 -3.238281 4.265625 -2.5 C 4.953125 -1.757812 5.921875 -1.390625 7.171875 -1.390625 C 8.472656 -1.390625 9.765625 -1.660156 11.046875 -2.203125 L 11.046875 -0.5625 C 10.398438 -0.28125 9.785156 -0.0820312 9.203125 0.03125 C 8.617188 0.15625 7.914062 0.21875 7.09375 0.21875 Z M 6.59375 -10.859375 C 5.613281 -10.859375 4.832031 -10.535156 4.25 -9.890625 C 3.675781 -9.253906 3.335938 -8.375 3.234375 -7.25 L 9.59375 -7.25 C 9.59375 -8.414062 9.332031 -9.304688 8.8125 -9.921875 C 8.300781 -10.546875 7.5625 -10.859375 6.59375 -10.859375 Z M 6.59375 -10.859375 "/></g></g></g><g fill="#000000" fill-opacity="1"><g transform="translate(299.509479, 53.413924)"><g><path d="M 9.8125 -3.328125 C 9.8125 -2.191406 9.390625 -1.316406 8.546875 -0.703125 C 7.703125 -0.0859375 6.515625 0.21875 4.984375 0.21875 C 3.367188 0.21875 2.109375 -0.0351562 1.203125 -0.546875 L 1.203125 -2.25 C 1.796875 -1.957031 2.425781 -1.722656 3.09375 -1.546875 C 3.757812 -1.378906 4.40625 -1.296875 5.03125 -1.296875 C 5.988281 -1.296875 6.726562 -1.445312 7.25 -1.75 C 7.769531 -2.0625 8.03125 -2.535156 8.03125 -3.171875 C 8.03125 -3.640625 7.820312 -4.039062 7.40625 -4.375 C 7 -4.71875 6.203125 -5.117188 5.015625 -5.578125 C 3.878906 -5.992188 3.070312 -6.359375 2.59375 -6.671875 C 2.113281 -6.992188 1.753906 -7.351562 1.515625 -7.75 C 1.285156 -8.15625 1.171875 -8.632812 1.171875 -9.1875 C 1.171875 -10.175781 1.570312 -10.957031 2.375 -11.53125 C 3.1875 -12.101562 4.296875 -12.390625 5.703125 -12.390625 C 7.015625 -12.390625 8.296875 -12.125 9.546875 -11.59375 L 8.890625 -10.09375 C 7.671875 -10.601562 6.566406 -10.859375 5.578125 -10.859375 C 4.703125 -10.859375 4.039062 -10.71875 3.59375 -10.4375 C 3.15625 -10.164062 2.9375 -9.789062 2.9375 -9.3125 C 2.9375 -8.976562 3.019531 -8.695312 3.1875 -8.46875 C 3.351562 -8.238281 3.617188 -8.019531 3.984375 -7.8125 C 4.359375 -7.613281 5.070312 -7.316406 6.125 -6.921875 C 7.5625 -6.390625 8.535156 -5.859375 9.046875 -5.328125 C 9.554688 -4.796875 9.8125 -4.128906 9.8125 -3.328125 Z M 9.8125 -3.328125 "/></g></g></g><g fill="#000000" fill-opacity="1"><g transform="translate(310.363077, 53.413924)"><g><path d="M 9.8125 -3.328125 C 9.8125 -2.191406 9.390625 -1.316406 8.546875 -0.703125 C 7.703125 -0.0859375 6.515625 0.21875 4.984375 0.21875 C 3.367188 0.21875 2.109375 -0.0351562 1.203125 -0.546875 L 1.203125 -2.25 C 1.796875 -1.957031 2.425781 -1.722656 3.09375 -1.546875 C 3.757812 -1.378906 4.40625 -1.296875 5.03125 -1.296875 C 5.988281 -1.296875 6.726562 -1.445312 7.25 -1.75 C 7.769531 -2.0625 8.03125 -2.535156 8.03125 -3.171875 C 8.03125 -3.640625 7.820312 -4.039062 7.40625 -4.375 C 7 -4.71875 6.203125 -5.117188 5.015625 -5.578125 C 3.878906 -5.992188 3.070312 -6.359375 2.59375 -6.671875 C 2.113281 -6.992188 1.753906 -7.351562 1.515625 -7.75 C 1.285156 -8.15625 1.171875 -8.632812 1.171875 -9.1875 C 1.171875 -10.175781 1.570312 -10.957031 2.375 -11.53125 C 3.1875 -12.101562 4.296875 -12.390625 5.703125 -12.390625 C 7.015625 -12.390625 8.296875 -12.125 9.546875 -11.59375 L 8.890625 -10.09375 C 7.671875 -10.601562 6.566406 -10.859375 5.578125 -10.859375 C 4.703125 -10.859375 4.039062 -10.71875 3.59375 -10.4375 C 3.15625 -10.164062 2.9375 -9.789062 2.9375 -9.3125 C 2.9375 -8.976562 3.019531 -8.695312 3.1875 -8.46875 C 3.351562 -8.238281 3.617188 -8.019531 3.984375 -7.8125 C 4.359375 -7.613281 5.070312 -7.316406 6.125 -6.921875 C 7.5625 -6.390625 8.535156 -5.859375 9.046875 -5.328125 C 9.554688 -4.796875 9.8125 -4.128906 9.8125 -3.328125 Z M 9.8125 -3.328125 "/></g></g></g><g fill="#000000" fill-opacity="1"><g transform="translate(321.216674, 53.413924)"><g><path d="M 12.46875 -6.09375 C 12.46875 -4.113281 11.96875 -2.566406 10.96875 -1.453125 C 9.96875 -0.335938 8.585938 0.21875 6.828125 0.21875 C 5.734375 0.21875 4.765625 -0.0351562 3.921875 -0.546875 C 3.078125 -1.054688 2.425781 -1.785156 1.96875 -2.734375 C 1.507812 -3.691406 1.28125 -4.8125 1.28125 -6.09375 C 1.28125 -8.082031 1.773438 -9.628906 2.765625 -10.734375 C 3.753906 -11.835938 5.128906 -12.390625 6.890625 -12.390625 C 8.597656 -12.390625 9.953125 -11.820312 10.953125 -10.6875 C 11.960938 -9.5625 12.46875 -8.03125 12.46875 -6.09375 Z M 3.1875 -6.09375 C 3.1875 -4.539062 3.492188 -3.359375 4.109375 -2.546875 C 4.734375 -1.734375 5.648438 -1.328125 6.859375 -1.328125 C 8.066406 -1.328125 8.984375 -1.726562 9.609375 -2.53125 C 10.234375 -3.34375 10.546875 -4.53125 10.546875 -6.09375 C 10.546875 -7.644531 10.234375 -8.820312 9.609375 -9.625 C 8.984375 -10.425781 8.0625 -10.828125 6.84375 -10.828125 C 5.632812 -10.828125 4.722656 -10.429688 4.109375 -9.640625 C 3.492188 -8.847656 3.1875 -7.664062 3.1875 -6.09375 Z M 3.1875 -6.09375 "/></g></g></g><g fill="#000000" fill-opacity="1"><g transform="translate(334.958638, 53.413924)"><g><path d="M 9.4375 0 L 9.078125 -1.734375 L 8.984375 -1.734375 C 8.378906 -0.972656 7.773438 -0.457031 7.171875 -0.1875 C 6.566406 0.0820312 5.8125 0.21875 4.90625 0.21875 C 3.695312 0.21875 2.75 -0.0859375 2.0625 -0.703125 C 1.382812 -1.328125 1.046875 -2.210938 1.046875 -3.359375 C 1.046875 -5.816406 3.007812 -7.109375 6.9375 -7.234375 L 9.015625 -7.296875 L 9.015625 -8.046875 C 9.015625 -9.003906 8.804688 -9.710938 8.390625 -10.171875 C 7.984375 -10.628906 7.328125 -10.859375 6.421875 -10.859375 C 5.410156 -10.859375 4.265625 -10.546875 2.984375 -9.921875 L 2.40625 -11.328125 C 3.007812 -11.648438 3.664062 -11.90625 4.375 -12.09375 C 5.09375 -12.28125 5.8125 -12.375 6.53125 -12.375 C 7.976562 -12.375 9.050781 -12.050781 9.75 -11.40625 C 10.457031 -10.757812 10.8125 -9.726562 10.8125 -8.3125 L 10.8125 0 Z M 5.28125 -1.296875 C 6.425781 -1.296875 7.328125 -1.609375 7.984375 -2.234375 C 8.640625 -2.867188 8.96875 -3.753906 8.96875 -4.890625 L 8.96875 -5.984375 L 7.125 -5.90625 C 5.65625 -5.851562 4.597656 -5.625 3.953125 -5.21875 C 3.304688 -4.820312 2.984375 -4.195312 2.984375 -3.34375 C 2.984375 -2.675781 3.179688 -2.164062 3.578125 -1.8125 C 3.984375 -1.46875 4.550781 -1.296875 5.28125 -1.296875 Z M 5.28125 -1.296875 "/></g></g></g><g fill="#000000" fill-opacity="1"><g transform="translate(347.611911, 53.413924)"><g/></g></g><g fill="#000000" fill-opacity="1"><g transform="translate(353.521953, 53.413924)"><g><path d="M 11.78125 0 L 1.109375 0 L 1.109375 -1.59375 L 5.390625 -5.890625 C 6.691406 -7.203125 7.550781 -8.140625 7.96875 -8.703125 C 8.382812 -9.265625 8.691406 -9.8125 8.890625 -10.34375 C 9.097656 -10.882812 9.203125 -11.460938 9.203125 -12.078125 C 9.203125 -12.941406 8.9375 -13.625 8.40625 -14.125 C 7.882812 -14.632812 7.160156 -14.890625 6.234375 -14.890625 C 5.554688 -14.890625 4.914062 -14.78125 4.3125 -14.5625 C 3.707031 -14.34375 3.035156 -13.941406 2.296875 -13.359375 L 1.328125 -14.609375 C 2.816406 -15.847656 4.441406 -16.46875 6.203125 -16.46875 C 7.734375 -16.46875 8.929688 -16.078125 9.796875 -15.296875 C 10.660156 -14.515625 11.09375 -13.46875 11.09375 -12.15625 C 11.09375 -11.125 10.800781 -10.101562 10.21875 -9.09375 C 9.644531 -8.09375 8.566406 -6.820312 6.984375 -5.28125 L 3.4375 -1.796875 L 3.4375 -1.703125 L 11.78125 -1.703125 Z M 11.78125 0 "/></g></g></g><path fill="#00bf63" d="M 430.015625 45.148438 C 430.015625 45.894531 429.941406 46.636719 429.796875 47.367188 C 429.652344 48.101562 429.433594 48.8125 429.148438 49.503906 C 428.863281 50.191406 428.511719 50.847656 428.097656 51.46875 C 427.683594 52.089844 427.210938 52.664062 426.683594 53.195312 C 426.15625 53.722656 425.582031 54.191406 424.960938 54.609375 C 424.339844 55.023438 423.683594 55.375 422.992188 55.660156 C 422.300781 55.945312 421.589844 56.160156 420.859375 56.308594 C 420.125 56.453125 419.386719 56.527344 418.640625 56.527344 C 417.890625 56.527344 417.152344 56.453125 416.417969 56.308594 C 415.6875 56.160156 414.976562 55.945312 414.285156 55.660156 C 413.59375 55.375 412.9375 55.023438 412.316406 54.609375 C 411.695312 54.191406 411.121094 53.722656 410.59375 53.195312 C 410.066406 52.664062 409.59375 52.089844 409.179688 51.46875 C 408.765625 50.847656 408.414062 50.191406 408.128906 49.503906 C 407.84375 48.8125 407.625 48.101562 407.480469 47.367188 C 407.335938 46.636719 407.261719 45.894531 407.261719 45.148438 C 407.261719 44.402344 407.335938 43.660156 407.480469 42.929688 C 407.625 42.195312 407.84375 41.484375 408.128906 40.796875 C 408.414062 40.105469 408.765625 39.449219 409.179688 38.828125 C 409.59375 38.207031 410.066406 37.632812 410.59375 37.105469 C 411.121094 36.574219 411.695312 36.105469 412.316406 35.6875 C 412.9375 35.273438 413.59375 34.921875 414.285156 34.636719 C 414.976562 34.351562 415.6875 34.136719 416.417969 33.992188 C 417.152344 33.84375 417.890625 33.773438 418.640625 33.773438 C 419.386719 33.773438 420.125 33.84375 420.859375 33.992188 C 421.589844 34.136719 422.300781 34.351562 422.992188 34.636719 C 423.683594 34.921875 424.339844 35.273438 424.960938 35.6875 C 425.582031 36.105469 426.15625 36.574219 426.683594 37.105469 C 427.210938 37.632812 427.683594 38.207031 428.097656 38.828125 C 428.511719 39.449219 428.863281 40.105469 429.148438 40.796875 C 429.433594 41.484375 429.652344 42.195312 429.796875 42.929688 C 429.941406 43.660156 430.015625 44.402344 430.015625 45.148438 Z M 430.015625 45.148438 " fill-opacity="1" fill-rule="nonzero"/><g fill="#000000" fill-opacity="1"><g transform="translate(439.881232, 53.413924)"><g><path d="M 12.53125 -11.515625 C 12.53125 -9.867188 11.96875 -8.601562 10.84375 -7.71875 C 9.726562 -6.832031 8.125 -6.390625 6.03125 -6.390625 L 4.125 -6.390625 L 4.125 0 L 2.234375 0 L 2.234375 -16.234375 L 6.4375 -16.234375 C 10.5 -16.234375 12.53125 -14.660156 12.53125 -11.515625 Z M 4.125 -8.015625 L 5.828125 -8.015625 C 7.492188 -8.015625 8.703125 -8.28125 9.453125 -8.8125 C 10.203125 -9.351562 10.578125 -10.222656 10.578125 -11.421875 C 10.578125 -12.492188 10.222656 -13.289062 9.515625 -13.8125 C 8.816406 -14.34375 7.722656 -14.609375 6.234375 -14.609375 L 4.125 -14.609375 Z M 4.125 -8.015625 "/></g></g></g><g fill="#000000" fill-opacity="1"><g transform="translate(453.57876, 53.413924)"><g><path d="M 7.09375 0.21875 C 5.300781 0.21875 3.882812 -0.328125 2.84375 -1.421875 C 1.800781 -2.515625 1.28125 -4.035156 1.28125 -5.984375 C 1.28125 -7.953125 1.757812 -9.507812 2.71875 -10.65625 C 3.6875 -11.8125 4.988281 -12.390625 6.625 -12.390625 C 8.144531 -12.390625 9.347656 -11.890625 10.234375 -10.890625 C 11.128906 -9.890625 11.578125 -8.566406 11.578125 -6.921875 L 11.578125 -5.75 L 3.1875 -5.75 C 3.226562 -4.320312 3.585938 -3.238281 4.265625 -2.5 C 4.953125 -1.757812 5.921875 -1.390625 7.171875 -1.390625 C 8.472656 -1.390625 9.765625 -1.660156 11.046875 -2.203125 L 11.046875 -0.5625 C 10.398438 -0.28125 9.785156 -0.0820312 9.203125 0.03125 C 8.617188 0.15625 7.914062 0.21875 7.09375 0.21875 Z M 6.59375 -10.859375 C 5.613281 -10.859375 4.832031 -10.535156 4.25 -9.890625 C 3.675781 -9.253906 3.335938 -8.375 3.234375 -7.25 L 9.59375 -7.25 C 9.59375 -8.414062 9.332031 -9.304688 8.8125 -9.921875 C 8.300781 -10.546875 7.5625 -10.859375 6.59375 -10.859375 Z M 6.59375 -10.859375 "/></g></g></g><g fill="#000000" fill-opacity="1"><g transform="translate(466.343123, 53.413924)"><g><path d="M 9.8125 -3.328125 C 9.8125 -2.191406 9.390625 -1.316406 8.546875 -0.703125 C 7.703125 -0.0859375 6.515625 0.21875 4.984375 0.21875 C 3.367188 0.21875 2.109375 -0.0351562 1.203125 -0.546875 L 1.203125 -2.25 C 1.796875 -1.957031 2.425781 -1.722656 3.09375 -1.546875 C 3.757812 -1.378906 4.40625 -1.296875 5.03125 -1.296875 C 5.988281 -1.296875 6.726562 -1.445312 7.25 -1.75 C 7.769531 -2.0625 8.03125 -2.535156 8.03125 -3.171875 C 8.03125 -3.640625 7.820312 -4.039062 7.40625 -4.375 C 7 -4.71875 6.203125 -5.117188 5.015625 -5.578125 C 3.878906 -5.992188 3.070312 -6.359375 2.59375 -6.671875 C 2.113281 -6.992188 1.753906 -7.351562 1.515625 -7.75 C 1.285156 -8.15625 1.171875 -8.632812 1.171875 -9.1875 C 1.171875 -10.175781 1.570312 -10.957031 2.375 -11.53125 C 3.1875 -12.101562 4.296875 -12.390625 5.703125 -12.390625 C 7.015625 -12.390625 8.296875 -12.125 9.546875 -11.59375 L 8.890625 -10.09375 C 7.671875 -10.601562 6.566406 -10.859375 5.578125 -10.859375 C 4.703125 -10.859375 4.039062 -10.71875 3.59375 -10.4375 C 3.15625 -10.164062 2.9375 -9.789062 2.9375 -9.3125 C 2.9375 -8.976562 3.019531 -8.695312 3.1875 -8.46875 C 3.351562 -8.238281 3.617188 -8.019531 3.984375 -7.8125 C 4.359375 -7.613281 5.070312 -7.316406 6.125 -6.921875 C 7.5625 -6.390625 8.535156 -5.859375 9.046875 -5.328125 C 9.554688 -4.796875 9.8125 -4.128906 9.8125 -3.328125 Z M 9.8125 -3.328125 "/></g></g></g><g fill="#000000" fill-opacity="1"><g transform="translate(477.196721, 53.413924)"><g><path d="M 9.8125 -3.328125 C 9.8125 -2.191406 9.390625 -1.316406 8.546875 -0.703125 C 7.703125 -0.0859375 6.515625 0.21875 4.984375 0.21875 C 3.367188 0.21875 2.109375 -0.0351562 1.203125 -0.546875 L 1.203125 -2.25 C 1.796875 -1.957031 2.425781 -1.722656 3.09375 -1.546875 C 3.757812 -1.378906 4.40625 -1.296875 5.03125 -1.296875 C 5.988281 -1.296875 6.726562 -1.445312 7.25 -1.75 C 7.769531 -2.0625 8.03125 -2.535156 8.03125 -3.171875 C 8.03125 -3.640625 7.820312 -4.039062 7.40625 -4.375 C 7 -4.71875 6.203125 -5.117188 5.015625 -5.578125 C 3.878906 -5.992188 3.070312 -6.359375 2.59375 -6.671875 C 2.113281 -6.992188 1.753906 -7.351562 1.515625 -7.75 C 1.285156 -8.15625 1.171875 -8.632812 1.171875 -9.1875 C 1.171875 -10.175781 1.570312 -10.957031 2.375 -11.53125 C 3.1875 -12.101562 4.296875 -12.390625 5.703125 -12.390625 C 7.015625 -12.390625 8.296875 -12.125 9.546875 -11.59375 L 8.890625 -10.09375 C 7.671875 -10.601562 6.566406 -10.859375 5.578125 -10.859375 C 4.703125 -10.859375 4.039062 -10.71875 3.59375 -10.4375 C 3.15625 -10.164062 2.9375 -9.789062 2.9375 -9.3125 C 2.9375 -8.976562 3.019531 -8.695312 3.1875 -8.46875 C 3.351562 -8.238281 3.617188 -8.019531 3.984375 -7.8125 C 4.359375 -7.613281 5.070312 -7.316406 6.125 -6.921875 C 7.5625 -6.390625 8.535156 -5.859375 9.046875 -5.328125 C 9.554688 -4.796875 9.8125 -4.128906 9.8125 -3.328125 Z M 9.8125 -3.328125 "/></g></g></g><g fill="#000000" fill-opacity="1"><g transform="translate(488.050319, 53.413924)"><g><path d="M 12.46875 -6.09375 C 12.46875 -4.113281 11.96875 -2.566406 10.96875 -1.453125 C 9.96875 -0.335938 8.585938 0.21875 6.828125 0.21875 C 5.734375 0.21875 4.765625 -0.0351562 3.921875 -0.546875 C 3.078125 -1.054688 2.425781 -1.785156 1.96875 -2.734375 C 1.507812 -3.691406 1.28125 -4.8125 1.28125 -6.09375 C 1.28125 -8.082031 1.773438 -9.628906 2.765625 -10.734375 C 3.753906 -11.835938 5.128906 -12.390625 6.890625 -12.390625 C 8.597656 -12.390625 9.953125 -11.820312 10.953125 -10.6875 C 11.960938 -9.5625 12.46875 -8.03125 12.46875 -6.09375 Z M 3.1875 -6.09375 C 3.1875 -4.539062 3.492188 -3.359375 4.109375 -2.546875 C 4.734375 -1.734375 5.648438 -1.328125 6.859375 -1.328125 C 8.066406 -1.328125 8.984375 -1.726562 9.609375 -2.53125 C 10.234375 -3.34375 10.546875 -4.53125 10.546875 -6.09375 C 10.546875 -7.644531 10.234375 -8.820312 9.609375 -9.625 C 8.984375 -10.425781 8.0625 -10.828125 6.84375 -10.828125 C 5.632812 -10.828125 4.722656 -10.429688 4.109375 -9.640625 C 3.492188 -8.847656 3.1875 -7.664062 3.1875 -6.09375 Z M 3.1875 -6.09375 "/></g></g></g><g fill="#000000" fill-opacity="1"><g transform="translate(501.792283, 53.413924)"><g><path d="M 9.4375 0 L 9.078125 -1.734375 L 8.984375 -1.734375 C 8.378906 -0.972656 7.773438 -0.457031 7.171875 -0.1875 C 6.566406 0.0820312 5.8125 0.21875 4.90625 0.21875 C 3.695312 0.21875 2.75 -0.0859375 2.0625 -0.703125 C 1.382812 -1.328125 1.046875 -2.210938 1.046875 -3.359375 C 1.046875 -5.816406 3.007812 -7.109375 6.9375 -7.234375 L 9.015625 -7.296875 L 9.015625 -8.046875 C 9.015625 -9.003906 8.804688 -9.710938 8.390625 -10.171875 C 7.984375 -10.628906 7.328125 -10.859375 6.421875 -10.859375 C 5.410156 -10.859375 4.265625 -10.546875 2.984375 -9.921875 L 2.40625 -11.328125 C 3.007812 -11.648438 3.664062 -11.90625 4.375 -12.09375 C 5.09375 -12.28125 5.8125 -12.375 6.53125 -12.375 C 7.976562 -12.375 9.050781 -12.050781 9.75 -11.40625 C 10.457031 -10.757812 10.8125 -9.726562 10.8125 -8.3125 L 10.8125 0 Z M 5.28125 -1.296875 C 6.425781 -1.296875 7.328125 -1.609375 7.984375 -2.234375 C 8.640625 -2.867188 8.96875 -3.753906 8.96875 -4.890625 L 8.96875 -5.984375 L 7.125 -5.90625 C 5.65625 -5.851562 4.597656 -5.625 3.953125 -5.21875 C 3.304688 -4.820312 2.984375 -4.195312 2.984375 -3.34375 C 2.984375 -2.675781 3.179688 -2.164062 3.578125 -1.8125 C 3.984375 -1.46875 4.550781 -1.296875 5.28125 -1.296875 Z M 5.28125 -1.296875 "/></g></g></g><g fill="#000000" fill-opacity="1"><g transform="translate(514.445556, 53.413924)"><g/></g></g><g fill="#000000" fill-opacity="1"><g transform="translate(520.355598, 53.413924)"><g><path d="M 11.171875 -12.421875 C 11.171875 -11.378906 10.878906 -10.53125 10.296875 -9.875 C 9.722656 -9.21875 8.898438 -8.773438 7.828125 -8.546875 L 7.828125 -8.46875 C 9.128906 -8.300781 10.09375 -7.882812 10.71875 -7.21875 C 11.351562 -6.550781 11.671875 -5.675781 11.671875 -4.59375 C 11.671875 -3.050781 11.132812 -1.863281 10.0625 -1.03125 C 8.988281 -0.195312 7.460938 0.21875 5.484375 0.21875 C 4.628906 0.21875 3.84375 0.148438 3.125 0.015625 C 2.414062 -0.109375 1.722656 -0.332031 1.046875 -0.65625 L 1.046875 -2.40625 C 1.742188 -2.0625 2.488281 -1.796875 3.28125 -1.609375 C 4.082031 -1.429688 4.835938 -1.34375 5.546875 -1.34375 C 8.359375 -1.34375 9.765625 -2.441406 9.765625 -4.640625 C 9.765625 -6.609375 8.21875 -7.59375 5.125 -7.59375 L 3.515625 -7.59375 L 3.515625 -9.1875 L 5.140625 -9.1875 C 6.410156 -9.1875 7.414062 -9.460938 8.15625 -10.015625 C 8.894531 -10.578125 9.265625 -11.359375 9.265625 -12.359375 C 9.265625 -13.148438 8.988281 -13.769531 8.4375 -14.21875 C 7.894531 -14.664062 7.160156 -14.890625 6.234375 -14.890625 C 5.523438 -14.890625 4.851562 -14.789062 4.21875 -14.59375 C 3.59375 -14.40625 2.875 -14.054688 2.0625 -13.546875 L 1.140625 -14.78125 C 1.804688 -15.3125 2.570312 -15.722656 3.4375 -16.015625 C 4.3125 -16.316406 5.226562 -16.46875 6.1875 -16.46875 C 7.757812 -16.46875 8.984375 -16.109375 9.859375 -15.390625 C 10.734375 -14.671875 11.171875 -13.679688 11.171875 -12.421875 Z M 11.171875 -12.421875 "/></g></g></g><path fill="#17320b" d="M 310.554688 86.105469 C 316.453125 86.105469 322.347656 86.285156 328.234375 86.648438 C 334.125 87.011719 339.996094 87.550781 345.851562 88.273438 C 351.707031 88.996094 357.535156 89.898438 363.335938 90.976562 C 369.136719 92.058594 374.898438 93.3125 380.621094 94.746094 C 386.34375 96.179688 392.015625 97.789062 397.640625 99.570312 C 403.265625 101.351562 408.828125 103.304688 414.335938 105.429688 C 419.839844 107.550781 425.273438 109.839844 430.636719 112.296875 C 436 114.753906 441.285156 117.375 446.488281 120.15625 C 451.691406 122.9375 456.804688 125.875 461.828125 128.96875 C 466.847656 132.066406 471.773438 135.3125 476.597656 138.707031 C 481.417969 142.105469 486.132812 145.648438 490.742188 149.332031 C 495.347656 153.019531 499.835938 156.84375 504.207031 160.804688 C 508.578125 164.769531 512.824219 168.859375 516.945312 173.082031 C 521.066406 177.304688 525.050781 181.652344 528.90625 186.117188 C 532.757812 190.585938 536.472656 195.167969 540.042969 199.863281 C 543.617188 204.558594 547.042969 209.359375 550.320312 214.261719 C 553.597656 219.167969 556.722656 224.171875 559.691406 229.269531 C 562.664062 234.363281 565.476562 239.546875 568.128906 244.816406 C 570.78125 250.089844 573.269531 255.433594 575.59375 260.855469 C 577.917969 266.28125 580.074219 271.769531 582.0625 277.324219 C 584.050781 282.878906 585.863281 288.488281 587.507812 294.15625 C 589.152344 299.820312 590.617188 305.53125 591.910156 311.289062 C 593.203125 317.046875 594.320312 322.835938 595.257812 328.660156 C 596.195312 334.484375 596.949219 340.335938 597.53125 346.207031 C 598.109375 352.078125 598.503906 357.960938 598.722656 363.855469 C 598.941406 369.753906 598.976562 375.648438 598.832031 381.546875 C 598.6875 387.445312 598.359375 393.332031 597.855469 399.210938 C 597.347656 405.089844 596.664062 410.945312 595.796875 416.78125 C 594.929688 422.617188 593.886719 428.421875 592.664062 434.195312 C 591.445312 439.964844 590.046875 445.695312 588.472656 451.382812 C 586.898438 457.066406 585.152344 462.699219 583.234375 468.277344 C 581.3125 473.855469 579.226562 479.371094 576.96875 484.824219 C 574.710938 490.273438 572.285156 495.648438 569.699219 500.953125 C 567.113281 506.253906 564.363281 511.472656 561.457031 516.605469 C 558.546875 521.738281 555.484375 526.777344 552.269531 531.722656 C 549.050781 536.667969 545.683594 541.511719 542.171875 546.25 C 538.65625 550.988281 535 555.613281 531.199219 560.128906 C 527.402344 564.644531 523.46875 569.035156 519.402344 573.308594 C 515.332031 577.582031 511.136719 581.726562 506.816406 585.742188 C 502.492188 589.757812 498.050781 593.636719 493.488281 597.378906 C 488.929688 601.121094 484.257812 604.722656 479.476562 608.175781 C 474.695312 611.632812 469.8125 614.941406 464.828125 618.097656 C 459.84375 621.253906 454.765625 624.253906 449.597656 627.097656 C 444.429688 629.941406 439.179688 632.625 433.84375 635.148438 C 428.511719 637.671875 423.105469 640.027344 417.628906 642.21875 C 412.148438 644.410156 406.609375 646.429688 401.007812 648.28125 C 395.40625 650.132812 389.753906 651.808594 384.046875 653.3125 C 378.34375 654.816406 372.597656 656.144531 366.808594 657.292969 C 361.023438 658.445312 355.207031 659.417969 349.363281 660.210938 C 343.515625 661.003906 337.652344 661.621094 331.765625 662.054688 C 325.882812 662.488281 319.992188 662.742188 314.09375 662.8125 C 308.191406 662.886719 302.296875 662.777344 296.402344 662.488281 C 290.511719 662.199219 284.632812 661.726562 278.769531 661.078125 C 272.90625 660.429688 267.066406 659.597656 261.253906 658.589844 C 255.441406 657.582031 249.664062 656.394531 243.925781 655.03125 C 238.183594 653.667969 232.492188 652.132812 226.84375 650.417969 C 221.199219 648.707031 215.613281 646.820312 210.082031 644.765625 C 204.550781 642.710938 199.089844 640.488281 193.695312 638.097656 C 188.300781 635.707031 182.988281 633.152344 177.75 630.433594 C 172.511719 627.71875 167.363281 624.84375 162.304688 621.808594 C 157.242188 618.777344 152.28125 615.589844 147.417969 612.253906 C 142.550781 608.914062 137.792969 605.429688 133.140625 601.800781 C 128.492188 598.171875 123.957031 594.402344 119.535156 590.496094 C 115.117188 586.585938 110.820312 582.546875 106.648438 578.375 L 310.554688 374.46875 Z M 310.554688 86.105469 " fill-opacity="1" fill-rule="nonzero"/><path fill="#7ed957" d="M 106.648438 578.375 C 103.3125 575.039062 100.058594 571.621094 96.890625 568.125 C 93.71875 564.628906 90.636719 561.054688 87.644531 557.40625 C 84.648438 553.757812 81.746094 550.039062 78.9375 546.25 C 76.125 542.457031 73.410156 538.601562 70.785156 534.675781 C 68.164062 530.753906 65.640625 526.765625 63.214844 522.71875 C 60.789062 518.671875 58.460938 514.566406 56.238281 510.40625 C 54.011719 506.242188 51.890625 502.027344 49.875 497.761719 C 47.855469 493.496094 45.945312 489.183594 44.140625 484.824219 C 42.332031 480.460938 40.636719 476.0625 39.046875 471.617188 C 37.457031 467.175781 35.976562 462.695312 34.605469 458.179688 C 33.234375 453.664062 31.976562 449.113281 30.832031 444.539062 C 29.683594 439.960938 28.648438 435.355469 27.730469 430.726562 C 26.808594 426.097656 26.003906 421.449219 25.308594 416.78125 C 24.617188 412.113281 24.039062 407.433594 23.578125 402.734375 C 23.113281 398.039062 22.765625 393.332031 22.535156 388.621094 C 22.304688 383.90625 22.1875 379.191406 22.1875 374.46875 C 22.1875 369.75 22.304688 365.035156 22.535156 360.320312 C 22.765625 355.605469 23.113281 350.902344 23.578125 346.207031 C 24.039062 341.507812 24.617188 336.828125 25.308594 332.160156 C 26.003906 327.492188 26.808594 322.84375 27.730469 318.214844 C 28.648438 313.585938 29.683594 308.980469 30.832031 304.402344 C 31.976562 299.824219 33.234375 295.277344 34.605469 290.761719 C 35.976562 286.246094 37.457031 281.765625 39.046875 277.324219 C 40.636719 272.878906 42.332031 268.476562 44.140625 264.117188 C 45.945312 259.757812 47.855469 255.445312 49.875 251.179688 C 51.890625 246.914062 54.011719 242.699219 56.238281 238.535156 C 58.460938 234.375 60.789062 230.269531 63.214844 226.222656 C 65.640625 222.171875 68.164062 218.1875 70.785156 214.261719 C 73.410156 210.339844 76.125 206.480469 78.9375 202.691406 C 81.746094 198.902344 84.648438 195.183594 87.644531 191.535156 C 90.636719 187.886719 93.71875 184.3125 96.890625 180.816406 C 100.058594 177.320312 103.3125 173.902344 106.648438 170.566406 L 310.554688 374.46875 Z M 106.648438 578.375 " fill-opacity="1" fill-rule="nonzero"/><path fill="#00bf63" d="M 106.648438 170.566406 C 113.324219 163.886719 120.3125 157.554688 127.613281 151.5625 C 134.914062 145.574219 142.488281 139.953125 150.339844 134.707031 C 158.191406 129.460938 166.28125 124.613281 174.609375 120.160156 C 182.9375 115.707031 191.464844 111.675781 200.1875 108.0625 C 208.910156 104.449219 217.792969 101.269531 226.828125 98.527344 C 235.863281 95.785156 245.011719 93.492188 254.273438 91.652344 C 263.535156 89.808594 272.867188 88.421875 282.261719 87.496094 C 291.660156 86.570312 301.082031 86.105469 310.523438 86.105469 L 310.554688 374.46875 Z M 106.648438 170.566406 " fill-opacity="1" fill-rule="nonzero"/></g></g></g><g clip-path="url(#a70ae3aaa7)"><g transform="matrix(1, 0, 0, 1, 648, 95)"><g clip-path="url(#7bc18a2e95)"><g fill="#000000" fill-opacity="1"><g transform="translate(0.85837, 240.929173)"><g><path d="M 54.4375 -89.578125 L 65.453125 -89.578125 C 76.242188 -89.578125 84.210938 -91.375 89.359375 -94.96875 C 94.503906 -98.570312 97.078125 -104.234375 97.078125 -111.953125 C 97.078125 -119.585938 94.445312 -125.019531 89.1875 -128.25 C 83.9375 -131.488281 75.800781 -133.109375 64.78125 -133.109375 L 54.4375 -133.109375 Z M 54.4375 -61.8125 L 54.4375 0 L 20.28125 0 L 20.28125 -161.09375 L 67.21875 -161.09375 C 89.101562 -161.09375 105.296875 -157.101562 115.796875 -149.125 C 126.304688 -141.15625 131.5625 -129.054688 131.5625 -112.828125 C 131.5625 -103.347656 128.953125 -94.914062 123.734375 -87.53125 C 118.515625 -80.15625 111.132812 -74.375 101.59375 -70.1875 C 125.832031 -33.96875 141.625 -10.570312 148.96875 0 L 111.0625 0 L 72.609375 -61.8125 Z M 54.4375 -61.8125 "/></g></g></g><g fill="#000000" fill-opacity="1"><g transform="translate(149.826049, 240.929173)"><g><path d="M 95.859375 0 L 89.359375 -16.75 L 88.484375 -16.75 C 82.828125 -9.625 77.003906 -4.679688 71.015625 -1.921875 C 65.023438 0.828125 57.21875 2.203125 47.59375 2.203125 C 35.769531 2.203125 26.457031 -1.171875 19.65625 -7.921875 C 12.863281 -14.679688 9.46875 -24.304688 9.46875 -36.796875 C 9.46875 -49.878906 14.039062 -59.519531 23.1875 -65.71875 C 32.332031 -71.925781 46.125 -75.363281 64.5625 -76.03125 L 85.9375 -76.6875 L 85.9375 -82.09375 C 85.9375 -94.570312 79.546875 -100.8125 66.765625 -100.8125 C 56.921875 -100.8125 45.351562 -97.835938 32.0625 -91.890625 L 20.9375 -114.59375 C 35.113281 -122.007812 50.832031 -125.71875 68.09375 -125.71875 C 84.625 -125.71875 97.296875 -122.117188 106.109375 -114.921875 C 114.921875 -107.722656 119.328125 -96.78125 119.328125 -82.09375 L 119.328125 0 Z M 85.9375 -57.078125 L 72.9375 -56.640625 C 63.164062 -56.335938 55.894531 -54.570312 51.125 -51.34375 C 46.351562 -48.113281 43.96875 -43.191406 43.96875 -36.578125 C 43.96875 -27.109375 49.398438 -22.375 60.265625 -22.375 C 68.054688 -22.375 74.28125 -24.613281 78.9375 -29.09375 C 83.601562 -33.570312 85.9375 -39.519531 85.9375 -46.9375 Z M 85.9375 -57.078125 "/></g></g></g><g fill="#000000" fill-opacity="1"><g transform="translate(286.12266, 240.929173)"><g><path d="M 69.53125 -24.578125 C 75.40625 -24.578125 82.457031 -25.859375 90.6875 -28.421875 L 90.6875 -3.421875 C 82.3125 0.328125 72.023438 2.203125 59.828125 2.203125 C 46.390625 2.203125 36.601562 -1.191406 30.46875 -7.984375 C 24.332031 -14.785156 21.265625 -24.976562 21.265625 -38.5625 L 21.265625 -97.953125 L 5.171875 -97.953125 L 5.171875 -112.171875 L 23.6875 -123.40625 L 33.390625 -149.40625 L 54.875 -149.40625 L 54.875 -123.1875 L 89.359375 -123.1875 L 89.359375 -97.953125 L 54.875 -97.953125 L 54.875 -38.5625 C 54.875 -33.789062 56.210938 -30.265625 58.890625 -27.984375 C 61.578125 -25.710938 65.125 -24.578125 69.53125 -24.578125 Z M 69.53125 -24.578125 "/></g></g></g><g fill="#000000" fill-opacity="1"><g transform="translate(384.075519, 240.929173)"><g><path d="M 68.640625 -101.59375 C 61.515625 -101.59375 55.929688 -99.332031 51.890625 -94.8125 C 47.859375 -90.289062 45.546875 -83.882812 44.953125 -75.59375 L 92.109375 -75.59375 C 91.960938 -83.882812 89.796875 -90.289062 85.609375 -94.8125 C 81.421875 -99.332031 75.765625 -101.59375 68.640625 -101.59375 Z M 73.375 2.203125 C 53.539062 2.203125 38.039062 -3.265625 26.875 -14.203125 C 15.71875 -25.148438 10.140625 -40.65625 10.140625 -60.71875 C 10.140625 -81.351562 15.296875 -97.304688 25.609375 -108.578125 C 35.929688 -119.859375 50.203125 -125.5 68.421875 -125.5 C 85.828125 -125.5 99.378906 -120.539062 109.078125 -110.625 C 118.773438 -100.707031 123.625 -87.007812 123.625 -69.53125 L 123.625 -53.21875 L 44.1875 -53.21875 C 44.550781 -43.664062 47.375 -36.207031 52.65625 -30.84375 C 57.945312 -25.488281 65.367188 -22.8125 74.921875 -22.8125 C 82.335938 -22.8125 89.351562 -23.582031 95.96875 -25.125 C 102.582031 -26.664062 109.488281 -29.125 116.6875 -32.5 L 116.6875 -6.5 C 110.8125 -3.5625 104.53125 -1.378906 97.84375 0.046875 C 91.15625 1.484375 83 2.203125 73.375 2.203125 Z M 73.375 2.203125 "/></g></g></g><g fill="#000000" fill-opacity="1"><g transform="translate(517.397183, 240.929173)"><g><path d="M 16.203125 -155.03125 C 16.203125 -165.976562 22.296875 -171.453125 34.484375 -171.453125 C 46.679688 -171.453125 52.78125 -165.976562 52.78125 -155.03125 C 52.78125 -149.8125 51.253906 -145.75 48.203125 -142.84375 C 45.148438 -139.945312 40.578125 -138.5 34.484375 -138.5 C 22.296875 -138.5 16.203125 -144.007812 16.203125 -155.03125 Z M 51.234375 0 L 17.625 0 L 17.625 -123.1875 L 51.234375 -123.1875 Z M 51.234375 0 "/></g></g></g><g fill="#000000" fill-opacity="1"><g transform="translate(586.261679, 240.929173)"><g><path d="M 44.40625 -61.8125 C 44.40625 -49.613281 46.40625 -40.394531 50.40625 -34.15625 C 54.414062 -27.914062 60.9375 -24.796875 69.96875 -24.796875 C 78.925781 -24.796875 85.367188 -27.894531 89.296875 -34.09375 C 93.234375 -40.300781 95.203125 -49.539062 95.203125 -61.8125 C 95.203125 -74.007812 93.21875 -83.15625 89.25 -89.25 C 85.28125 -95.34375 78.78125 -98.390625 69.75 -98.390625 C 60.78125 -98.390625 54.3125 -95.359375 50.34375 -89.296875 C 46.382812 -83.242188 44.40625 -74.082031 44.40625 -61.8125 Z M 129.578125 -61.8125 C 129.578125 -41.757812 124.285156 -26.078125 113.703125 -14.765625 C 103.128906 -3.453125 88.40625 2.203125 69.53125 2.203125 C 57.695312 2.203125 47.265625 -0.382812 38.234375 -5.5625 C 29.203125 -10.738281 22.257812 -18.175781 17.40625 -27.875 C 12.5625 -37.570312 10.140625 -48.882812 10.140625 -61.8125 C 10.140625 -81.9375 15.390625 -97.582031 25.890625 -108.75 C 36.398438 -119.914062 51.164062 -125.5 70.1875 -125.5 C 82.007812 -125.5 92.4375 -122.925781 101.46875 -117.78125 C 110.507812 -112.644531 117.453125 -105.265625 122.296875 -95.640625 C 127.148438 -86.015625 129.578125 -74.738281 129.578125 -61.8125 Z M 129.578125 -61.8125 "/></g></g></g></g></g></g><g transform="matrix(1, 0, 0, 1, 668, 311)"><g clip-path="url(#635830231f)"><g fill="#000000" fill-opacity="1"><g transform="translate(0.940205, 204.71793)"><g><path d="M 138 -55.609375 C 138 -35.597656 132.296875 -20.859375 120.890625 -11.390625 C 109.484375 -1.929688 93.078125 2.796875 71.671875 2.796875 C 50.265625 2.796875 33.859375 -1.929688 22.453125 -11.390625 C 11.054688 -20.859375 5.359375 -35.597656 5.359375 -55.609375 L 5.359375 -57.703125 L 53.515625 -57.703125 L 53.515625 -55.84375 C 53.515625 -48.550781 54.875 -43.351562 57.59375 -40.25 C 60.3125 -37.15625 64.460938 -35.609375 70.046875 -35.609375 C 75.628906 -35.609375 79.773438 -37.15625 82.484375 -40.25 C 85.203125 -43.351562 86.5625 -48.550781 86.5625 -55.84375 L 86.5625 -160.09375 L 138 -160.09375 Z M 138 -55.609375 "/></g></g></g><g fill="#000000" fill-opacity="1"><g transform="translate(150.091609, 204.71793)"><g><path d="M 103.09375 0 L 100.0625 -18.609375 C 95.25 -11.941406 88.925781 -6.707031 81.09375 -2.90625 C 73.257812 0.894531 65 2.796875 56.3125 2.796875 C 42.039062 2.796875 31.335938 -1.15625 24.203125 -9.0625 C 17.066406 -16.976562 13.5 -28.382812 13.5 -43.28125 L 13.5 -122.875 L 59.8125 -122.875 L 59.8125 -48.875 C 59.8125 -43.59375 61.164062 -39.363281 63.875 -36.1875 C 66.59375 -33.007812 70.429688 -31.421875 75.390625 -31.421875 C 81.128906 -31.421875 85.78125 -33.28125 89.34375 -37 C 92.914062 -40.71875 94.703125 -45.296875 94.703125 -50.734375 L 94.703125 -122.875 L 141.015625 -122.875 L 141.015625 0 Z M 103.09375 0 "/></g></g></g><g fill="#000000" fill-opacity="1"><g transform="translate(305.293336, 204.71793)"><g><path d="M 72.375 -125.65625 C 88.8125 -125.65625 102.734375 -122.4375 114.140625 -116 C 125.546875 -109.5625 131.25 -99.59375 131.25 -86.09375 L 88.1875 -86.09375 C 88.1875 -90.59375 86.171875 -93.773438 82.140625 -95.640625 C 79.347656 -97.191406 75.859375 -97.96875 71.671875 -97.96875 C 60.503906 -97.96875 54.921875 -95.332031 54.921875 -90.0625 C 54.921875 -87.113281 56.859375 -85.015625 60.734375 -83.765625 C 64.609375 -82.523438 70.96875 -81.207031 79.8125 -79.8125 C 90.675781 -78.257812 99.753906 -76.4375 107.046875 -74.34375 C 114.335938 -72.25 120.695312 -68.523438 126.125 -63.171875 C 131.550781 -57.828125 134.265625 -50.34375 134.265625 -40.71875 C 134.265625 -25.050781 128.40625 -13.878906 116.6875 -7.203125 C 104.976562 -0.535156 89.660156 2.796875 70.734375 2.796875 C 59.878906 2.796875 49.640625 1.285156 40.015625 -1.734375 C 30.398438 -4.765625 22.566406 -9.457031 16.515625 -15.8125 C 10.472656 -22.175781 7.453125 -30.25 7.453125 -40.03125 L 50.5 -40.03125 L 50.5 -39.09375 C 50.65625 -33.820312 52.863281 -30.140625 57.125 -28.046875 C 61.394531 -25.953125 65.929688 -24.90625 70.734375 -24.90625 C 83.617188 -24.90625 90.0625 -27.925781 90.0625 -33.96875 C 90.0625 -37.070312 88.039062 -39.320312 84 -40.71875 C 79.96875 -42.113281 73.375 -43.585938 64.21875 -45.140625 C 53.207031 -47.003906 44.171875 -49.019531 37.109375 -51.1875 C 30.054688 -53.363281 23.890625 -57.050781 18.609375 -62.25 C 13.335938 -67.445312 10.703125 -74.695312 10.703125 -84 C 10.703125 -99.050781 16.398438 -109.753906 27.796875 -116.109375 C 39.203125 -122.472656 54.0625 -125.65625 72.375 -125.65625 Z M 72.375 -125.65625 "/></g></g></g><g fill="#000000" fill-opacity="1"><g transform="translate(447.464639, 204.71793)"><g><path d="M 95.875 -122.875 L 95.875 -91.453125 L 69.8125 -91.453125 L 69.8125 -44.671875 C 69.8125 -39.085938 70.738281 -35.015625 72.59375 -32.453125 C 74.457031 -29.898438 77.875 -28.625 82.84375 -28.625 L 95.875 -28.625 L 95.875 -1.390625 C 92.144531 -0.148438 87.332031 0.851562 81.4375 1.625 C 75.550781 2.40625 70.4375 2.796875 66.09375 2.796875 C 52.4375 2.796875 41.921875 0.316406 34.546875 -4.640625 C 27.179688 -9.609375 23.5 -18.066406 23.5 -30.015625 L 23.5 -91.453125 L 6.28125 -91.453125 L 6.28125 -122.875 L 25.359375 -122.875 L 35.375 -160.09375 L 69.8125 -160.09375 L 69.8125 -122.875 Z M 95.875 -122.875 "/></g></g></g><g fill="#000000" fill-opacity="1"><g transform="translate(550.777343, 204.71793)"><g><path d="M 77.484375 -125.65625 C 99.046875 -125.65625 115.992188 -120.1875 128.328125 -109.25 C 140.660156 -98.3125 146.828125 -82.375 146.828125 -61.4375 C 146.828125 -40.488281 140.660156 -24.546875 128.328125 -13.609375 C 115.992188 -2.671875 99.046875 2.796875 77.484375 2.796875 C 55.921875 2.796875 39.007812 -2.628906 26.75 -13.484375 C 14.5 -24.347656 8.375 -40.332031 8.375 -61.4375 C 8.375 -82.53125 14.5 -98.503906 26.75 -109.359375 C 39.007812 -120.222656 55.921875 -125.65625 77.484375 -125.65625 Z M 77.484375 -94.25 C 62.285156 -94.25 54.6875 -85.484375 54.6875 -67.953125 L 54.6875 -54.6875 C 54.6875 -37.3125 62.285156 -28.625 77.484375 -28.625 C 92.847656 -28.625 100.53125 -37.3125 100.53125 -54.6875 L 100.53125 -67.953125 C 100.53125 -85.484375 92.847656 -94.25 77.484375 -94.25 Z M 77.484375 -94.25 "/></g></g></g></g></g></g></g></svg>