<svg xmlns="http://www.w3.org/2000/svg" width="762" height="759" viewBox="0 0 762 759">
<g>
<path d="M 77.00 610.00 L 76.50 621.50 L 71.77 621.80 L 67.05 622.11 L 66.77 584.98 L 66.50 547.86 L 86.00 548.26 C107.36,548.70 111.15,549.44 116.59,554.21 C122.13,559.08 124.37,564.33 124.40,572.50 C124.42,578.37 123.95,580.36 121.51,584.83 C118.80,589.79 115.76,593.04 111.53,595.52 C109.68,596.60 110.18,597.53 121.73,614.67 C123.65,617.51 124.92,620.32 124.55,620.92 C124.18,621.51 121.87,622.00 119.41,622.00 L 114.93 622.00 L 99.94 599.00 L 89.47 599.00 C83.71,599.00 78.66,598.89 78.25,598.75 C77.84,598.61 77.28,603.67 77.00,610.00 ZM 689.21 620.45 C682.76,622.64 670.79,622.39 664.38,619.93 C653.46,615.73 647.01,605.71 647.03,593.00 C647.06,574.52 659.19,564.17 679.68,565.16 C691.63,565.73 699.02,569.96 704.51,579.39 C706.98,583.63 707.37,585.37 707.43,592.39 C707.49,599.34 707.10,601.32 704.69,606.22 C701.39,612.94 695.59,618.27 689.21,620.45 ZM 372.57 619.25 C369.63,620.77 366.13,621.46 360.00,621.73 C352.59,622.05 350.86,621.79 346.50,619.67 C336.23,614.68 330.51,605.29 330.58,593.50 C330.65,581.63 335.79,572.97 345.50,568.38 C352.60,565.03 365.34,565.01 372.51,568.35 C378.02,570.92 383.40,576.41 385.81,581.93 C387.93,586.75 387.91,600.28 385.79,605.14 C383.59,610.16 377.44,616.73 372.57,619.25 ZM 509.32 620.88 C508.11,621.50 504.29,621.99 500.82,621.98 C493.28,621.95 488.84,619.75 484.73,613.99 C480.86,608.59 479.91,601.90 480.23,582.39 L 480.50 565.50 L 497.50 565.50 L 498.00 582.55 C498.53,600.67 499.26,603.46 504.11,606.06 C508.81,608.57 515.55,604.98 517.93,598.68 C518.52,597.13 519.00,588.94 519.00,580.43 L 519.00 565.00 L 524.88 565.00 C528.11,565.00 532.16,565.28 533.89,565.63 L 537.03 566.26 L 536.77 593.88 L 536.50 621.50 L 528.00 621.50 C519.68,621.50 519.49,621.45 519.20,619.00 C518.57,613.75 518.10,613.51 514.72,616.71 C512.95,618.39 510.52,620.26 509.32,620.88 ZM 454.24 620.28 C442.25,625.04 426.47,621.81 418.46,612.95 C416.82,611.15 416.92,610.78 420.62,605.04 C422.75,601.73 424.89,599.01 425.36,599.01 C425.83,599.00 427.63,600.19 429.36,601.65 C432.94,604.67 437.99,607.00 440.95,607.00 C442.06,607.00 444.44,605.69 446.23,604.08 L 449.50 601.17 L 449.86 585.56 C450.05,576.98 449.92,568.41 449.57,566.51 L 448.92 563.06 L 436.71 562.78 L 424.50 562.50 L 424.21 555.25 L 423.91 548.00 L 468.16 548.00 L 467.81 576.25 C467.42,607.20 467.25,608.23 461.11,615.22 C459.39,617.18 456.29,619.46 454.24,620.28 ZM 278.36 620.27 C271.19,622.84 260.76,622.57 254.50,619.65 C233.79,609.98 232.40,578.95 252.22,569.05 C257.42,566.45 259.44,566.00 265.91,566.01 C275.44,566.01 279.50,567.13 284.28,571.08 C290.09,575.87 292.35,581.12 292.43,590.00 L 292.50 597.50 L 270.75 597.77 C256.80,597.94 249.00,598.41 249.00,599.06 C249.00,601.82 253.48,608.29 257.00,610.62 C264.01,615.26 274.58,614.75 280.85,609.47 C284.52,606.38 285.08,606.39 288.08,609.60 L 290.50 612.20 L 286.86 615.36 C284.85,617.10 281.03,619.31 278.36,620.27 ZM 169.80 618.75 C166.28,621.09 164.43,621.54 157.57,621.79 C150.65,622.03 148.94,621.75 145.59,619.79 C139.81,616.40 137.69,612.97 137.25,606.26 C136.76,598.73 139.05,594.32 145.04,591.25 C148.85,589.30 150.96,589.00 161.09,589.00 C174.31,589.00 175.67,588.36 174.60,582.67 C173.52,576.92 169.98,574.59 161.69,574.18 C155.27,573.86 153.90,574.14 148.88,576.79 L 143.26 579.76 L 141.59 576.27 C139.50,571.89 140.33,570.77 147.63,568.04 C153.83,565.72 167.41,565.23 173.10,567.13 C177.75,568.68 182.84,573.71 184.08,577.97 C184.68,580.03 184.98,589.83 184.80,601.50 L 184.50 621.50 L 180.00 621.50 C175.83,621.50 175.48,621.30 175.18,618.75 C175.01,617.24 174.66,616.00 174.41,616.00 C174.16,616.00 172.09,617.24 169.80,618.75 ZM 585.54 619.72 C578.38,623.46 561.80,622.86 552.64,618.52 C549.54,617.06 547.00,615.41 547.00,614.86 C547.00,614.32 547.97,611.62 549.16,608.86 C550.16,606.53 550.65,605.18 551.58,604.71 C552.78,604.10 554.70,604.92 559.37,606.91 C559.73,607.07 560.10,607.23 560.50,607.40 C568.05,610.61 574.93,610.84 577.53,607.96 C579.32,605.98 579.32,605.88 577.39,603.94 C576.30,602.85 571.92,601.01 567.66,599.85 C558.81,597.45 554.51,594.89 551.27,590.08 C546.52,583.03 549.47,571.84 557.11,567.94 C565.96,563.43 580.47,563.46 590.77,568.02 L 595.07 569.92 L 592.02 575.97 L 588.97 582.01 L 585.23 580.41 C574.12,575.63 566.00,575.72 566.00,580.62 C566.00,583.40 568.45,584.71 579.68,587.95 C592.88,591.75 598.62,599.93 594.94,609.68 C593.60,613.22 589.40,617.71 585.54,619.72 ZM 638.63 620.50 C630.12,624.04 619.74,622.90 614.31,617.84 C609.52,613.36 609.00,611.13 609.00,595.05 C609.00,580.09 608.84,579.34 605.65,579.92 C605.18,580.00 603.94,579.80 602.90,579.47 C601.32,578.97 601.00,577.88 601.00,572.99 L 601.00 567.12 L 608.50 566.50 L 609.09 552.00 L 625.91 552.00 L 626.50 566.50 L 633.80 566.79 L 641.10 567.09 L 640.80 572.79 L 640.50 578.50 L 626.50 579.50 L 626.50 592.33 C626.50,604.00 626.68,605.30 628.50,606.65 C629.61,607.46 631.62,607.91 633.00,607.63 C633.19,607.60 633.37,607.56 633.54,607.53 C636.46,606.95 637.88,606.67 638.80,607.22 C639.72,607.78 640.13,609.17 641.05,611.96 C642.04,614.97 642.61,617.82 642.31,618.31 C642.00,618.80 640.35,619.79 638.63,620.50 ZM 350.93 611.25 C357.16,614.41 359.59,614.62 364.78,612.45 C375.80,607.85 380.78,594.50 375.42,583.90 C370.25,573.67 356.04,571.04 347.01,578.65 C342.40,582.53 341.00,586.04 341.02,593.70 C341.04,603.00 343.61,607.54 350.93,611.25 ZM 77.00 556.77 L 77.00 589.00 L 89.03 589.00 C102.76,589.00 105.98,588.07 110.67,582.72 C117.57,574.87 115.73,564.09 106.66,559.28 C104.31,558.04 100.09,557.50 90.25,557.19 ZM 227.55 620.55 C225.63,621.35 221.61,622.00 218.61,622.00 C214.19,622.00 212.57,621.51 210.05,619.39 C204.82,614.99 204.53,613.79 204.00,594.00 L 203.50 575.50 L 199.75 575.19 C196.20,574.90 196.00,574.69 196.00,571.44 C196.00,569.05 196.46,568.00 197.50,568.00 C198.32,568.00 199.11,568.08 199.25,568.17 C199.39,568.26 200.51,567.80 201.75,567.13 C203.73,566.08 204.00,565.15 204.00,559.46 L 204.00 553.00 L 213.91 553.00 L 214.50 567.50 L 222.81 567.79 L 231.12 568.08 L 230.81 571.29 L 230.50 574.50 L 222.25 574.79 L 214.00 575.08 L 214.00 591.87 C214.00,608.36 214.04,608.69 216.44,610.94 C218.90,613.25 221.80,613.40 227.73,611.49 C229.56,610.90 230.15,611.27 231.02,613.56 C232.44,617.30 231.69,618.81 227.55,620.55 ZM 669.29 604.63 C675.51,610.33 684.09,608.67 687.99,601.02 C691.34,594.46 690.12,586.03 685.18,581.63 C682.22,579.00 675.11,578.38 671.18,580.41 C666.47,582.84 664.71,587.07 665.20,594.78 C665.58,600.73 665.91,601.53 669.29,604.63 ZM 315.89 620.63 C315.27,621.38 313.01,622.00 310.88,622.00 L 307.00 622.00 L 307.00 565.89 L 311.75 566.20 L 316.50 566.50 L 316.77 592.88 C316.96,611.50 316.70,619.66 315.89,620.63 ZM 249.29 586.58 L 248.74 590.00 L 265.81 590.00 C275.20,590.00 283.13,589.60 283.43,589.11 C284.27,587.76 281.98,581.78 279.61,579.15 C276.30,575.47 272.55,574.00 266.51,574.00 C256.99,574.00 250.57,578.69 249.29,586.58 ZM 149.40 610.60 C152.38,613.58 153.43,614.00 157.94,614.00 C167.65,614.00 174.99,607.87 175.00,599.75 L 175.00 596.00 L 164.97 596.00 C154.13,596.00 148.92,597.41 147.08,600.85 C145.22,604.32 145.88,607.08 149.40,610.60 ZM 316.00 554.00 C313.28,556.72 308.54,556.61 306.56,553.78 C303.39,549.25 305.28,544.46 310.65,543.41 C316.69,542.22 320.42,549.58 316.00,554.00 Z" fill="rgb(3,3,3)"/>
<path d="M 417.42 489.57 C406.93,491.99 403.11,492.36 385.50,492.62 C364.44,492.93 356.85,492.15 341.00,488.04 C293.94,475.84 253.81,443.52 231.44,399.80 C219.65,376.74 214.29,356.39 213.31,330.91 C212.17,301.13 217.52,275.95 230.53,249.96 C255.87,199.34 302.65,165.98 360.13,157.56 C375.40,155.32 378.77,155.44 379.21,158.25 C379.41,159.49 379.38,183.68 379.15,212.00 C378.92,240.32 379.07,277.29 379.48,294.15 L 380.23 324.81 L 407.36 336.58 C422.29,343.05 440.35,350.92 447.50,354.07 C474.80,366.07 516.82,384.44 524.27,387.62 C532.42,391.11 534.99,392.08 535.30,393.53 C535.44,394.18 535.12,394.93 534.64,396.05 C534.55,396.27 534.45,396.51 534.35,396.76 C533.50,398.82 531.19,403.20 529.23,406.50 C510.60,437.82 488.47,459.13 458.50,474.62 C444.31,481.95 433.65,485.83 417.42,489.57 Z" fill="rgb(11,67,86)"/>
<path d="M 549.38 378.23 C548.59,379.75 547.62,380.99 547.22,380.97 C546.47,380.94 533.65,375.35 509.50,364.50 C501.80,361.04 492.80,357.09 489.50,355.73 C484.14,353.50 470.98,347.80 443.50,335.78 C438.55,333.62 430.00,329.89 424.50,327.50 C419.00,325.11 410.00,321.15 404.50,318.70 L 394.50 314.24 L 394.50 146.50 L 397.50 146.15 C404.79,145.30 431.10,150.36 445.50,155.38 C510.02,177.88 555.10,236.00 559.98,303.00 C561.00,317.05 559.89,337.61 557.48,349.15 C555.23,359.95 551.02,375.06 549.38,378.23 Z" fill="rgb(105,189,129)"/>
<path d="M 0.00 379.50 L 0.00 0.00 L 381.00 0.00 L 762.00 0.00 L 762.00 379.50 L 762.00 759.00 L 381.00 759.00 L 0.00 759.00 L 0.00 379.50 ZM 454.24 620.28 C456.29,619.46 459.39,617.18 461.11,615.22 C467.25,608.23 467.42,607.20 467.81,576.25 L 468.16 548.00 L 446.04 548.00 L 423.91 548.00 L 424.21 555.25 L 424.50 562.50 L 436.71 562.78 L 448.92 563.06 L 449.57 566.51 C449.92,568.41 450.05,576.98 449.86,585.56 L 449.50 601.17 L 446.23 604.08 C444.44,605.69 442.06,607.00 440.95,607.00 C437.99,607.00 432.94,604.67 429.36,601.65 C427.63,600.19 425.83,599.00 425.36,599.01 C424.89,599.01 422.75,601.73 420.62,605.04 C416.92,610.78 416.82,611.15 418.46,612.95 C426.47,621.81 442.25,625.04 454.24,620.28 ZM 585.54 619.72 C589.40,617.71 593.60,613.22 594.94,609.68 C598.62,599.93 592.88,591.75 579.68,587.95 C568.45,584.71 566.00,583.40 566.00,580.62 C566.00,575.72 574.12,575.63 585.23,580.41 L 588.97 582.01 L 592.02 575.97 L 595.07 569.92 L 590.77 568.02 C580.47,563.46 565.96,563.43 557.11,567.94 C549.47,571.84 546.52,583.03 551.27,590.08 C554.51,594.89 558.81,597.45 567.66,599.85 C571.92,601.01 576.30,602.85 577.39,603.94 C579.32,605.88 579.32,605.98 577.53,607.96 C574.93,610.84 568.05,610.61 560.50,607.40 C551.03,603.37 551.55,603.30 549.16,608.86 C547.97,611.62 547.00,614.32 547.00,614.86 C547.00,615.41 549.54,617.06 552.64,618.52 C561.80,622.86 578.38,623.46 585.54,619.72 ZM 638.63 620.50 C640.35,619.79 642.00,618.80 642.31,618.31 C642.61,617.82 642.04,614.97 641.05,611.96 C639.16,606.24 639.41,606.37 633.00,607.63 C631.62,607.91 629.61,607.46 628.50,606.65 C626.68,605.30 626.50,604.00 626.50,592.33 L 626.50 579.50 L 633.50 579.00 L 640.50 578.50 L 640.80 572.79 L 641.10 567.09 L 633.80 566.79 L 626.50 566.50 L 626.21 559.25 L 625.91 552.00 L 617.50 552.00 L 609.09 552.00 L 608.79 559.25 L 608.50 566.50 L 604.75 566.81 L 601.00 567.12 L 601.00 572.99 C601.00,577.88 601.32,578.97 602.90,579.47 C603.94,579.80 605.18,580.00 605.65,579.92 C608.84,579.34 609.00,580.09 609.00,595.05 C609.00,611.13 609.52,613.36 614.31,617.84 C619.74,622.90 630.12,624.04 638.63,620.50 ZM 77.00 610.00 C77.28,603.67 77.84,598.61 78.25,598.75 C78.66,598.89 83.71,599.00 89.47,599.00 L 99.94 599.00 L 107.44 610.50 L 114.93 622.00 L 119.41 622.00 C121.87,622.00 124.18,621.51 124.55,620.92 C124.92,620.32 123.65,617.51 121.73,614.67 C110.18,597.53 109.68,596.60 111.53,595.52 C115.76,593.04 118.80,589.79 121.51,584.83 C123.95,580.36 124.42,578.37 124.40,572.50 C124.37,564.33 122.13,559.08 116.59,554.21 C111.15,549.44 107.36,548.70 86.00,548.26 L 66.50 547.86 L 66.77 584.98 L 67.05 622.11 L 71.77 621.80 L 76.50 621.50 L 77.00 610.00 ZM 169.80 618.75 C172.09,617.24 174.16,616.00 174.41,616.00 C174.66,616.00 175.01,617.24 175.18,618.75 C175.48,621.30 175.83,621.50 180.00,621.50 L 184.50 621.50 L 184.80 601.50 C184.98,589.83 184.68,580.03 184.08,577.97 C182.84,573.71 177.75,568.68 173.10,567.13 C167.41,565.23 153.83,565.72 147.63,568.04 C140.33,570.77 139.50,571.89 141.59,576.27 L 143.26 579.76 L 148.88 576.79 C153.90,574.14 155.27,573.86 161.69,574.18 C169.98,574.59 173.52,576.92 174.60,582.67 C175.67,588.36 174.31,589.00 161.09,589.00 C150.96,589.00 148.85,589.30 145.04,591.25 C139.05,594.32 136.76,598.73 137.25,606.26 C137.69,612.97 139.81,616.40 145.59,619.79 C148.94,621.75 150.65,622.03 157.57,621.79 C164.43,621.54 166.28,621.09 169.80,618.75 ZM 227.55 620.55 C231.69,618.81 232.44,617.30 231.02,613.56 C230.15,611.27 229.56,610.90 227.73,611.49 C221.80,613.40 218.90,613.25 216.44,610.94 C214.04,608.69 214.00,608.36 214.00,591.87 L 214.00 575.08 L 222.25 574.79 L 230.50 574.50 L 230.81 571.29 L 231.12 568.08 L 222.81 567.79 L 214.50 567.50 L 214.21 560.25 L 213.91 553.00 L 208.96 553.00 L 204.00 553.00 L 204.00 559.46 C204.00,565.15 203.73,566.08 201.75,567.13 C200.51,567.80 199.39,568.26 199.25,568.17 C199.11,568.08 198.32,568.00 197.50,568.00 C196.46,568.00 196.00,569.05 196.00,571.44 C196.00,574.69 196.20,574.90 199.75,575.19 L 203.50 575.50 L 204.00 594.00 C204.53,613.79 204.82,614.99 210.05,619.39 C212.57,621.51 214.19,622.00 218.61,622.00 C221.61,622.00 225.63,621.35 227.55,620.55 ZM 278.36 620.27 C281.03,619.31 284.85,617.10 286.86,615.36 L 290.50 612.20 L 288.08 609.60 C285.08,606.39 284.52,606.38 280.85,609.47 C274.58,614.75 264.01,615.26 257.00,610.62 C253.48,608.29 249.00,601.82 249.00,599.06 C249.00,598.41 256.80,597.94 270.75,597.77 L 292.50 597.50 L 292.43 590.00 C292.35,581.12 290.09,575.87 284.28,571.08 C279.50,567.13 275.44,566.01 265.91,566.01 C259.44,566.00 257.42,566.45 252.22,569.05 C232.40,578.95 233.79,609.98 254.50,619.65 C260.76,622.57 271.19,622.84 278.36,620.27 ZM 315.89 620.63 C316.70,619.66 316.96,611.50 316.77,592.88 L 316.50 566.50 L 311.75 566.20 L 307.00 565.89 L 307.00 593.95 L 307.00 622.00 L 310.88 622.00 C313.01,622.00 315.27,621.38 315.89,620.63 ZM 372.57 619.25 C377.44,616.73 383.59,610.16 385.79,605.14 C387.91,600.28 387.93,586.75 385.81,581.93 C383.40,576.41 378.02,570.92 372.51,568.35 C365.34,565.01 352.60,565.03 345.50,568.38 C335.79,572.97 330.65,581.63 330.58,593.50 C330.51,605.29 336.23,614.68 346.50,619.67 C350.86,621.79 352.59,622.05 360.00,621.73 C366.13,621.46 369.63,620.77 372.57,619.25 ZM 509.32 620.88 C510.52,620.26 512.95,618.39 514.72,616.71 C518.10,613.51 518.57,613.75 519.20,619.00 C519.49,621.45 519.68,621.50 528.00,621.50 L 536.50 621.50 L 536.77 593.88 L 537.03 566.26 L 533.89 565.63 C532.16,565.28 528.11,565.00 524.88,565.00 L 519.00 565.00 L 519.00 580.43 C519.00,588.94 518.52,597.13 517.93,598.68 C515.55,604.98 508.81,608.57 504.11,606.06 C499.26,603.46 498.53,600.67 498.00,582.55 L 497.50 565.50 L 489.00 565.50 L 480.50 565.50 L 480.23 582.39 C479.91,601.90 480.86,608.59 484.73,613.99 C488.84,619.75 493.28,621.95 500.82,621.98 C504.29,621.99 508.11,621.50 509.32,620.88 ZM 689.21 620.45 C695.59,618.27 701.39,612.94 704.69,606.22 C707.10,601.32 707.49,599.34 707.43,592.39 C707.37,585.37 706.98,583.63 704.51,579.39 C699.02,569.96 691.63,565.73 679.68,565.16 C659.19,564.17 647.06,574.52 647.03,593.00 C647.01,605.71 653.46,615.73 664.38,619.93 C670.79,622.39 682.76,622.64 689.21,620.45 ZM 316.00 554.00 C320.42,549.58 316.69,542.22 310.65,543.41 C305.28,544.46 303.39,549.25 306.56,553.78 C308.54,556.61 313.28,556.72 316.00,554.00 ZM 417.42 489.57 C433.65,485.83 444.31,481.95 458.50,474.62 C488.47,459.13 510.60,437.82 529.23,406.50 C531.19,403.20 533.50,398.82 534.35,396.76 C536.15,392.40 536.80,392.99 524.27,387.62 C516.82,384.44 474.80,366.07 447.50,354.07 C440.35,350.92 422.29,343.05 407.36,336.58 L 380.23 324.81 L 379.48 294.15 C379.07,277.29 378.92,240.32 379.15,212.00 C379.38,183.68 379.41,159.49 379.21,158.25 C378.77,155.44 375.40,155.32 360.13,157.56 C302.65,165.98 255.87,199.34 230.53,249.96 C217.52,275.95 212.17,301.13 213.31,330.91 C214.29,356.39 219.65,376.74 231.44,399.80 C253.81,443.52 293.94,475.84 341.00,488.04 C356.85,492.15 364.44,492.93 385.50,492.62 C403.11,492.36 406.93,491.99 417.42,489.57 ZM 549.38 378.23 C551.02,375.06 555.23,359.95 557.48,349.15 C559.89,337.61 561.00,317.05 559.98,303.00 C555.10,236.00 510.02,177.88 445.50,155.38 C431.10,150.36 404.79,145.30 397.50,146.15 L 394.50 146.50 L 394.50 230.37 L 394.50 314.24 L 404.50 318.70 C410.00,321.15 419.00,325.11 424.50,327.50 C430.00,329.89 438.55,333.62 443.50,335.78 C470.98,347.80 484.14,353.50 489.50,355.73 C492.80,357.09 501.80,361.04 509.50,364.50 C533.65,375.35 546.47,380.94 547.22,380.97 C547.62,380.99 548.59,379.75 549.38,378.23 ZM 77.00 572.88 L 77.00 556.77 L 90.25 557.19 C100.09,557.50 104.31,558.04 106.66,559.28 C115.73,564.09 117.57,574.87 110.67,582.72 C105.98,588.07 102.76,589.00 89.03,589.00 L 77.00 589.00 L 77.00 572.88 ZM 149.40 610.60 C145.88,607.08 145.22,604.32 147.08,600.85 C148.92,597.41 154.13,596.00 164.97,596.00 L 175.00 596.00 L 175.00 599.75 C174.99,607.87 167.65,614.00 157.94,614.00 C153.43,614.00 152.38,613.58 149.40,610.60 ZM 249.29 586.58 C250.57,578.69 256.99,574.00 266.51,574.00 C272.55,574.00 276.30,575.47 279.61,579.15 C281.98,581.78 284.27,587.76 283.43,589.11 C283.13,589.60 275.20,590.00 265.81,590.00 L 248.74 590.00 L 249.29 586.58 ZM 350.93 611.25 C343.61,607.54 341.04,603.00 341.02,593.70 C341.00,586.04 342.40,582.53 347.01,578.65 C356.04,571.04 370.25,573.67 375.42,583.90 C380.78,594.50 375.80,607.85 364.78,612.45 C359.59,614.62 357.16,614.41 350.93,611.25 ZM 669.29 604.63 C665.91,601.53 665.58,600.73 665.20,594.78 C664.71,587.07 666.47,582.84 671.18,580.41 C675.11,578.38 682.22,579.00 685.18,581.63 C690.12,586.03 691.34,594.46 687.99,601.02 C684.09,608.67 675.51,610.33 669.29,604.63 Z" fill="rgb(254,254,254)"/>
</g>
</svg>